# AST/ASF file generated using VICON BodyLanguage
# -----------------------------------------------
:version 1.10
:name VICON
:units
  mass 1.0
  length 0.45
  angle deg
:documentation
   .ast/.asf automatically generated from VICON data using
   VICON BodyBuilder and BodyLanguage model FoxedUp or BRILLIANT.MOD
:root
   order TX TY TZ RX RY RZ
   axis XYZ
   position 0 0 0  
   orientation 0 0 0 
:bonedata
  begin
     id 1 
     name lhipjoint
     direction 0.707368 -0.647095 0.284426 
     length 2.60678 
     axis 0 0 0  XYZ
  end
  begin
     id 2 
     name lfemur
     direction 0.34202 -0.939693 0  
     length 6.63812  
     axis 0 0 20  XYZ
    dof rx ry rz
    limits (-160.0 20.0)
           (-70.0 70.0)
           (-60.0 70.0)
  end
  begin
     id 3 
     name ltibia
     direction 0.34202 -0.939693 0   
     length 7.51178   
     axis 0 0 20   XYZ
    dof rx
    limits (-10.0 170.0)
  end
  begin
     id 4 
     name lfoot
     direction 0.121251 -0.333133 0.935051   
     length 1.83716   
     axis -90 7.62852e-016 20   XYZ
    dof rx rz
    limits (-45.0 90.0)
           (-70.0 20.0)
  end
  begin
     id 5 
     name ltoes
     direction 1.53611e-011 -4.21962e-011 1   
     length 0.916133   
     axis -90 7.62852e-016 20   XYZ
    dof rx
    limits (-90.0 20.0)
  end
  begin
     id 6 
     name rhipjoint
     direction -0.692419 -0.660507 0.290321   
     length 2.55385  
     axis 0 0 0  XYZ 
  end
  begin
     id 7 
     name rfemur
     direction -0.34202 -0.939693 0   
     length 7.29079   
     axis 0 0 -20   XYZ
    dof rx ry rz
    limits (-160.0 20.0)
           (-70.0 70.0)
           (-70.0 60.0)
  end
  begin
     id 8 
     name rtibia
     direction -0.34202 -0.939693 0   
     length 7.47143   
     axis 0 0 -20   XYZ
    dof rx
    limits (-10.0 170.0)
 end
 begin
     id 9 
     name rfoot
     direction -0.119907 -0.329441 0.936532   
     length 1.79439  
     axis -90 -7.62852e-016 -20   XYZ
    dof rx rz
    limits (-45.0 90.0)
           (-20.0 70.0)
  end
  begin
     id 10 
     name rtoes
     direction -1.53571e-011 -4.21961e-011 1   
     length 0.896039   
     axis -90 -7.62852e-016 -20   XYZ
    dof rx
    limits (-90.0 20.0)
  end
  begin
     id 11 
     name lowerback
     direction 0.0367721 0.992912 -0.113016   
     length 1.73542   
     axis 0 0 0   XYZ
    dof rx ry rz
    limits (-20.0 45.0)
           (-30.0 30.0)
           (-30.0 30.0)
  end
  begin
     id 12 
     name upperback
     direction -0.000314626 0.990678 0.136227   
     length 1.7514   
     axis 0 0 0   XYZ
    dof rx ry rz
    limits (-20.0 45.0)
           (-30.0 30.0)
           (-30.0 30.0)
  end
  begin
     id 13 
     name thorax
     direction -0.0226159 0.981151 0.191917   
     length 1.71471   
     axis 0 0 0   XYZ
    dof rx ry rz
    limits (-20.0 45.0)
           (-30.0 30.0)
           (-30.0 30.0)
  end
  begin
     id 14 
     name lowerneck
     direction 0.0219333 0.998071 0.0580739   
     length 1.65882   
     axis 0 0 0   XYZ
    dof rx ry rz
    limits (-20.0 45.0)
           (-30.0 30.0)
           (-30.0 30.0)
  end
  begin
     id 15 
     name upperneck
     direction 0.0384529 0.980058 -0.194957   
     length 1.6612   
     axis 0 0 0   XYZ
    dof rx ry rz
    limits (-20.0 45.0)
           (-30.0 30.0)
           (-30.0 30.0)
  end
  begin
     id 16
     name head
     direction 0.00592123 0.997421 -0.0715234  
     length 1.68077  
     axis 0 0 0   XYZ
    dof rx ry rz
    limits (-20.0 45.0)
           (-30.0 30.0)
           (-30.0 30.0)
  end
  begin
     id 17 
     name lclavicle
     direction 0.904803 0.417826 0.0821728  
     length 3.42227  
     axis 0 0 0   XYZ
    dof ry rz
    limits (-20.0 10.0)
           (0.0 20.0)
  end
  begin
     id 18 
     name lhumerus
     direction 1 -4.48965e-011 -2.68786e-027   
     length 5.11878   
     axis -180 -30 -90   XYZ
    dof rx ry rz
    limits (-60.0 90.0)
           (-90.0 90.0)
           (-90.0 90.0)
  end
  begin
     id 19
     name lradius
     direction 1 -4.48965e-011 2.61168e-028   
     length 3.59971   
     axis -180 -30 -90   XYZ
    dof rx
    limits (-10.0 170.0)
  end
  begin
     id 20
     name lwrist
     direction 1 -4.48965e-011 1.58672e-027   
     length 1.79985   
     axis -1.65735e-015 90 90   XYZ
    dof ry
    limits (-180.0 0.0)
 end
  begin
     id 21 
     name lhand
     direction 1 -4.48942e-011 3.17344e-027   
     length 0.62877   
     axis -2.02492e-015 90 90   XYZ
    dof rx rz
    limits (-90.0 90.0)
           (-45.0 45.0)
  end
  begin
     id 22 
     name lfingers
     direction 1 -4.49011e-011 6.34687e-027   
     length 0.506931   
     axis -4.04985e-015 90 90   XYZ
    dof rx
    limits (0.0 90.0)
  end
  begin
     id 23
     name lthumb
     direction 0.707107 -6.34982e-011 0.707107   
     length 0.727854   
     axis -90 45 2.85299e-015   XYZ
    dof rx rz
    limits (-45.0 45.0)
           (-45.0 45.0)
  end
  begin
     id 24 
     name rclavicle
     direction -0.945647 0.32488 0.0143075   
     length 3.52737  
     axis 0 0 0   XYZ 
    dof ry rz
    limits (-10.0 20.0)
           (-20.0 0.0)
  end
  begin
     id 25 
     name rhumerus
     direction -1 -4.48962e-011 1.92182e-027  
     length 5.4902   
     axis -180 30 90   XYZ
    dof rx ry rz
    limits (-90.0 60.0)
           (-90.0 90.0)
           (-90.0 90.0)
  end
  begin
     id 26 
     name rradius
     direction -1 -4.48967e-011 -5.97193e-028   
     length 3.20659   
     axis -180 30 90   XYZ
    dof rx
    limits (-10.0 170.0)
  end
  begin
     id 27 
     name rwrist
     direction -1 -4.48964e-011 1.58672e-027   
     length 1.6033   
     axis -1.65735e-015 -90 -90   XYZ
    dof ry
    limits (-180.0 0.0)
  end
  begin
     id 28
     name rhand
     direction -1 -4.49006e-011 3.17344e-027   
     length 0.691885   
     axis -2.02492e-015 -90 -90   XYZ
    dof rx rz
    limits (-90.0 90.0)
           (-45.0 45.0)
  end
  begin
     id 29
     name rfingers
     direction -1 -4.48908e-011 6.34687e-027   
     length 0.557815   
     axis -4.04985e-015 -90 -90   XYZ
    dof rx
    limits (0.0 90.0)
  end
  begin
     id 30
     name rthumb
     direction -0.707107 -6.34999e-011 0.707107   
     length 0.800915   
     axis -90 -45 -2.85299e-015   XYZ
    dof rx rz
    limits (-45.0 45.0)
           (-45.0 45.0)
  end
:hierarchy
  begin
    root lhipjoint rhipjoint lowerback
    lhipjoint lfemur
    lfemur ltibia
    ltibia lfoot
    lfoot ltoes
    rhipjoint rfemur
    rfemur rtibia
    rtibia rfoot
    rfoot rtoes
    lowerback upperback
    upperback thorax
    thorax lowerneck lclavicle rclavicle
    lowerneck upperneck
    upperneck head
    lclavicle lhumerus
    lhumerus lradius
    lradius lwrist
    lwrist lhand lthumb
    lhand lfingers
    rclavicle rhumerus
    rhumerus rradius
    rradius rwrist
    rwrist rhand rthumb
    rhand rfingers
  end

#!OML:ASF I:\Actors\actors\Patient Classification 1\Patient 1\Session 1\Subject1.ASF
:FULLY-SPECIFIED
:DEGREES
229
root -0.190013 17.4824 8.31512 9.84802 0.0978646 -8.64461
lowerback -0.629505 -0.16498 4.73982
upperback -4.3913 -0.0400617 2.79671
thorax -4.18851 -0.136834 0.238242
lowerneck -12.8542 -4.01781 -2.07719
upperneck 14.6 -6.22968 6.74987
head 6.86125 -2.54566 1.90513
rclavicle 1.02203e-014 -4.90998e-014
rhumerus -40.6488 39.9133 -99.1262
rradius 78.8322
rwrist 47.039
rhand -32.2139 -48.7174
rfingers 7.12502
rthumb -5.45523 -78.6272
lclavicle 1.02203e-014 -4.90998e-014
lhumerus -22.6901 -56.7997 91.3637
lradius 58.5755
lwrist -3.36004
lhand -54.5862 -27.7516
lfingers 7.12502
lthumb -26.9843 0.341266
rfemur -6.32164 22.8023 23.1077
rtibia 4.71258
rfoot -13.158 -23.514
rtoes 0.934436
lfemur 2.92248 -45.2304 -8.9386
ltibia -3.94058
lfoot -28.2077 55.2679
ltoes 14.835
230
root -0.189467 17.4821 8.30943 9.86635 -0.0876439 -8.68621
lowerback -0.574959 -0.0616692 4.82874
upperback -4.34196 0.0986427 2.72723
thorax -4.16374 -0.0714388 0.112338
lowerneck -12.978 -4.03249 -2.20611
upperneck 14.7795 -6.27703 6.97985
head 6.9551 -2.54876 1.99318
rclavicle 8.9919e-016 4.39314e-014
rhumerus -38.3265 41.5877 -98.3622
rradius 78.9554
rwrist 46.6446
rhand -33.0054 -50.8843
rfingers 7.12502
rthumb -6.21939 -80.773
lclavicle 8.9919e-016 4.39314e-014
lhumerus -22.445 -56.9233 90.9526
lradius 58.6337
lwrist -3.65011
lhand -55.0722 -29.3678
lfingers 7.12502
lthumb -27.4492 -1.34787
rfemur -6.46399 22.8054 23.1098
rtibia 4.83435
rfoot -13.0344 -23.3567
rtoes 0.529014
lfemur 2.89317 -44.9801 -8.87247
ltibia -3.94087
lfoot -28.1316 55.2142
ltoes 14.8576
231
root -0.188692 17.4823 8.30343 9.88707 -0.340846 -8.72811
lowerback -0.508679 0.0699514 4.92204
upperback -4.30918 0.276407 2.64022
thorax -4.16072 0.0123952 -0.0352238
lowerneck -12.872 -4.07485 -2.08106
upperneck 14.6992 -6.33397 6.86387
head 6.90558 -2.58339 1.9313
rclavicle 1.6524e-015 -4.09496e-014
rhumerus -35.8996 42.825 -97.4766
rradius 78.9168
rwrist 46.7385
rhand -33.5342 -52.9373
rfingers 7.12502
rthumb -6.72988 -82.8103
lclavicle 1.6524e-015 -4.09496e-014
lhumerus -22.2306 -57.1455 90.5669
lradius 58.7247
lwrist -3.79756
lhand -55.3802 -30.7407
lfingers 7.12502
lthumb -27.7437 -2.76784
rfemur -6.61684 22.8359 23.1083
rtibia 4.98435
rfoot -12.988 -23.131
rtoes 0.450808
lfemur 2.92822 -44.8153 -8.86394
ltibia -3.93987
lfoot -28.3733 55.235
ltoes 15.1834
232
root -0.18798 17.4819 8.29942 9.90706 -0.631429 -8.7515
lowerback -0.490104 0.234733 5.00434
upperback -4.27609 0.493926 2.52602
thorax -4.1273 0.116493 -0.206037
lowerneck -12.722 -4.12185 -1.92083
upperneck 14.6797 -6.41317 6.77432
head 6.86884 -2.624 1.87082
rclavicle -6.96057e-015 -2.98177e-014
rhumerus -33.4875 43.7459 -96.6398
rradius 78.7252
rwrist 46.7459
rhand -33.6144 -54.7528
rfingers 7.12502
rthumb -6.80733 -84.6234
lclavicle -6.96057e-015 -2.98177e-014
lhumerus -22.0212 -57.4494 90.2187
lradius 58.8189
lwrist -3.74596
lhand -55.4565 -31.6298
lfingers 7.12502
lthumb -27.8167 -3.66864
rfemur -6.74462 22.8539 23.0872
rtibia 5.12328
rfoot -12.9892 -22.8291
rtoes 0.43001
lfemur 3.02381 -44.7517 -8.94014
ltibia -3.92502
lfoot -28.7969 55.3385
ltoes 15.6374
233
root -0.186076 17.481 8.29579 9.92284 -0.901069 -8.7587
lowerback -0.50669 0.385919 5.07243
upperback -4.20912 0.689137 2.42439
thorax -4.03822 0.21183 -0.355018
lowerneck -12.6696 -4.17456 -1.94378
upperneck 14.6994 -6.51161 6.94033
head 6.87765 -2.65908 1.91878
rclavicle 1.04486e-014 -2.18663e-015
rhumerus -30.486 44.2188 -95.2771
rradius 78.1129
rwrist 46.0595
rhand -34.2761 -54.0234
rfingers 7.12502
rthumb -7.44611 -83.8723
lclavicle 1.04486e-014 -2.18663e-015
lhumerus -21.689 -57.6884 89.8071
lradius 58.9222
lwrist -3.53814
lhand -55.4475 -32.1299
lfingers 7.12502
lthumb -27.8081 -4.16743
rfemur -6.86057 22.7987 23.0444
rtibia 5.2264
rfoot -12.8835 -22.5215
rtoes 0.0698539
lfemur 3.13505 -44.7885 -9.06664
ltibia -3.89621
lfoot -29.1479 55.5466
ltoes 15.8129
234
root -0.184875 17.4816 8.29204 9.93471 -1.18872 -8.78516
lowerback -0.507941 0.520644 5.11306
upperback -4.13559 0.864031 2.36517
thorax -3.95171 0.29903 -0.443949
lowerneck -12.6499 -4.12038 -1.99479
upperneck 14.7225 -6.45082 7.06505
head 6.88494 -2.62188 1.97384
rclavicle -6.75868e-015 4.37326e-014
rhumerus -27.9355 44.5105 -94.2058
rradius 77.5273
rwrist 45.984
rhand -34.0172 -53.7621
rfingers 7.12502
rthumb -7.19619 -83.6197
lclavicle -6.75868e-015 4.37326e-014
lhumerus -21.3355 -57.7739 89.4091
lradius 59.039
lwrist -3.38438
lhand -55.5017 -32.1994
lfingers 7.12502
lthumb -27.8599 -4.24529
rfemur -6.96806 22.7412 23.0276
rtibia 5.30126
rfoot -12.685 -22.2306
rtoes -0.43743
lfemur 3.28442 -44.8088 -9.18628
ltibia -3.89647
lfoot -29.5375 55.7508
ltoes 15.9496
235
root -0.186038 17.4839 8.28991 9.94337 -1.49603 -8.81098
lowerback -0.485839 0.663852 5.10461
upperback -4.09661 1.05316 2.31425
thorax -3.91402 0.393854 -0.497316
lowerneck -12.6007 -4.14994 -2.07137
upperneck 14.7118 -6.50118 7.21039
head 6.88313 -2.63938 2.02886
rclavicle 3.67752e-015 -5.26779e-014
rhumerus -26.2077 43.9643 -93.6604
rradius 77.1907
rwrist 46.8128
rhand -33.159 -53.6451
rfingers 7.12502
rthumb -6.36772 -83.5294
lclavicle 3.67752e-015 -5.26779e-014
lhumerus -21.1321 -57.7794 89.1628
lradius 59.1699
lwrist -3.37921
lhand -55.6987 -32.2272
lfingers 7.12502
lthumb -28.0482 -4.30375
rfemur -7.0356 22.7985 23.0278
rtibia 5.34071
rfoot -12.5339 -22.0259
rtoes -0.764908
lfemur 3.43553 -44.7337 -9.28436
ltibia -3.91445
lfoot -29.9915 55.8606
ltoes 16.2788
236
root -0.185079 17.4849 8.2888 9.97675 -1.66575 -8.82151
lowerback -0.312314 0.808919 5.22563
upperback -4.21636 1.2637 2.18036
thorax -4.12334 0.485955 -0.711476
lowerneck -12.4802 -4.21403 -2.05055
upperneck 14.7961 -6.61879 7.3173
head 6.8986 -2.6863 2.04985
rclavicle 2.13694e-015 -2.78299e-014
rhumerus -23.448 46.8003 -92.5867
rradius 75.5481
rwrist 45.2282
rhand -32.2469 -56.9278
rfingers 7.12502
rthumb -5.48708 -86.8368
lclavicle 2.13694e-015 -2.78299e-014
lhumerus -21.3851 -57.8997 89.277
lradius 59.3278
lwrist -3.49658
lhand -55.7552 -32.2084
lfingers 7.12502
lthumb -28.1023 -4.2938
rfemur -7.09246 22.8685 23.0008
rtibia 5.34037
rfoot -12.5162 -21.9403
rtoes -0.756786
lfemur 3.4277 -44.6623 -9.29112
ltibia -3.87911
lfoot -30.1808 55.8991
ltoes 16.4683
237
root -0.183965 17.4844 8.28715 10.0292 -1.72987 -8.84413
lowerback 0.0163355 0.953805 5.45642
upperback -4.46326 1.49303 1.99168
thorax -4.54869 0.574568 -1.04882
lowerneck -12.4698 -4.32264 -2.05859
upperneck 15.1488 -6.81964 7.46003
head 7.0266 -2.76181 2.07628
rclavicle -8.23093e-015 -1.59028e-014
rhumerus -20.9662 47.4208 -91.3949
rradius 74.2171
rwrist 43.6356
rhand -32.6398 -55.4269
rfingers 7.12502
rthumb -5.86645 -85.3257
lclavicle -8.23093e-015 -1.59028e-014
lhumerus -21.9213 -58.1188 89.629
lradius 59.4728
lwrist -3.60716
lhand -55.5128 -31.7168
lfingers 7.12502
lthumb -27.8705 -3.76435
rfemur -7.15386 22.8941 22.9853
rtibia 5.31021
rfoot -12.4994 -21.9024
rtoes -0.703893
lfemur 3.3205 -44.5975 -9.20235
ltibia -3.83055
lfoot -30.3801 55.8463
ltoes 16.7341
238
root -0.185079 17.485 8.28499 10.053 -1.76973 -8.84916
lowerback 0.0588552 1.0373 5.48151
upperback -4.46706 1.60652 1.93169
thorax -4.56813 0.628302 -1.12983
lowerneck -12.687 -4.39196 -2.18463
upperneck 15.4639 -6.93334 7.56254
head 7.1809 -2.80066 2.11386
rclavicle 9.55409e-015 2.10712e-014
rhumerus -18.4515 47.881 -90.1179
rradius 72.9679
rwrist 43.2187
rhand -32.347 -54.8522
rfingers 7.12502
rthumb -5.58378 -84.7587
lclavicle 9.55409e-015 2.10712e-014
lhumerus -21.7004 -58.097 89.4781
lradius 59.5395
lwrist -3.53682
lhand -55.3518 -31.2878
lfingers 7.12502
lthumb -27.7166 -3.31049
rfemur -7.17013 22.9363 22.9827
rtibia 5.26622
rfoot -12.4618 -21.9186
rtoes -0.752661
lfemur 3.24101 -44.4629 -9.13052
ltibia -3.81358
lfoot -30.5584 55.7123
ltoes 17.0751
239
root -0.185022 17.4859 8.28389 10.0728 -1.7891 -8.8246
lowerback -0.377634 1.0518 5.28079
upperback -4.12175 1.57496 2.03194
thorax -3.96621 0.641093 -0.902854
lowerneck -13.0725 -4.38552 -2.37857
upperneck 15.4891 -6.8958 7.61936
head 7.2636 -2.77846 2.16099
rclavicle -9.41121e-015 -2.82274e-014
rhumerus -15.2225 48.7219 -88.1984
rradius 71.7014
rwrist 43.0007
rhand -31.6042 -54.7725
rfingers 7.12502
rthumb -4.86653 -84.6966
lclavicle -9.41121e-015 -2.82274e-014
lhumerus -20.4363 -57.7677 88.6246
lradius 59.5054
lwrist -3.44922
lhand -55.4333 -31.1591
lfingers 7.12502
lthumb -27.7945 -3.1944
rfemur -7.17282 23.0096 22.9467
rtibia 5.22292
rfoot -12.4459 -21.9786
rtoes -0.83667
lfemur 3.15346 -44.2945 -9.09432
ltibia -3.79223
lfoot -30.2205 55.6353
ltoes 16.935
